/* XPM */
static char *_0543_2e78379f142a9bacb758c33a34e1d7a2304111f28d20c5c120c419705ca0ff75_1[] = {
/* columns rows colors chars-per-pixel */
"128 128 2 1 ",
"  c black",
". c None",
/* pixels */
"................................................................................................................................",
"................................................................................................................................",
"................................................................................................................................",
"................................................................................................................................",
"................................................................................................................................",
"................................................................................................................................",
"................................................................................................................................",
"................................................................................................................................",
"................................................................................................................................",
"................................................................................................................................",
"...............................................................................     ............................................",
".............................................................................       ............................................",
"............................................................................        ............................................",
"...........................................................................         ............................................",
"..........................................................................          ............................................",
"........................................................................            ............................................",
".......................................................................             ............................................",
"......................................................................              ............................................",
"....................................................................                ............................................",
"...................................................................          .      ............................................",
"..................................................................          ..      ............................................",
".................................................................          ...      ............................................",
"...............................................................          .....      ............................................",
"..............................................................          ......      ............................................",
".............................................................          .......      ............................................",
"...........................................................           ........      .................  .........................",
"..........................................................          ..........      ...............      .......................",
".........................................................          ...........      ...............        .....................",
"........................................................          ............      ..............          ....................",
"......................................................          ..............      ...............          ...................",
".....................................................          ...............      ...............            .................",
"....................................................          ................      ...............             ................",
"...................................................         ..................      .................            ...............",
".................................................          ...................      ..................            ..............",
"................................................          ....................      ....................           .............",
"...............................................          .....................      .....................           ............",
".............................................          .......................      .......................          ...........",
"............................................          ........................      ........................          ..........",
"..........................................           .........................      .........................         ..........",
"........                                           ...........................      ..........................         .........",
"......                                            ............................      ...........................         ........",
".....                                            .............................      ............................        ........",
"....                                           ...............................      .............................        .......",
"...                                           ................................      .........     ...............         ......",
"...                                          .................................      .........      ...............        ......",
"..        ........................         ...................................      .........        ..............        .....",
"..       .......................          ....................................      .........        ..............        .....",
"..      .......................          .....................................      .........         ..............        ....",
"..      ......................          ......................................      .........          .............        ....",
"..      .....................         ........................................      ..........          .............       ....",
".      .....................         .........................................      ...........          ............        ...",
".      .....................        ..........................................      ............         .............       ...",
".      .....................       ...........................................      .............         ............       ...",
".      ......................    .............................................      ..............        ............        ..",
".      ....................... ...............................................      ..............         ...........        ..",
".      .......................................................................      ...............        ............       ..",
".      .......................................................................      ................       ............       ..",
".      .......................................................................      ................        ...........       ..",
".      .......................................................................      ................        ...........        .",
".      .......................................................................      ................        ...........        .",
".      .......................................................................      .................       ............       .",
".      .......................................................................      .................       ............       .",
".      .......................................................................      .................       ............       .",
".      .......................................................................      .................       ............       .",
".      .......................................................................      .................       ............       .",
".      .......................................................................      .................       ............       .",
".      .......................................................................      .................       ............       .",
".      .......................................................................      .................       ............       .",
".      .......................................................................      .................       ............       .",
".      .......................................................................      ................        ............       .",
".      .......................................................................      ................        ...........        .",
".      .......................................................................      ................       ............        .",
".      .......................................................................      ...............        ............       ..",
".      .......................................................................      ...............        ............       ..",
".      .......................................................................      ..............        .............       ..",
".      .......................................................................      .............         ............        ..",
".      .......................................................................      .............        .............        ..",
".      .......................................................................      ............         .............       ...",
".      .......................................................................      ...........         .............        ...",
".      .......................................................................      ..........         ..............        ...",
".      .......................................................................      .........          ..............       ....",
"..      ......................................................................      .........         ..............        ....",
"..      ......................................................................      .........        ...............        ....",
"..      ......................................................................      ..........      ...............        .....",
"..       .....................................................................      ............   ...............         .....",
"..        ....................................................................      ..............................        ......",
"...         ..................................................................      .............................         ......",
"...                                           ................................      ............................         .......",
"....                                           ...............................      ...........................         ........",
".....                                           ..............................      ...........................         ........",
"......                                            ............................      ..........................         .........",
"........                                           ...........................      ........................          ..........",
"..........                                          ..........................      .......................          ...........",
"............................................          ........................      ......................           ...........",
".............................................          .......................      .....................           ............",
"..............................................          ......................      ...................            .............",
"................................................          ....................      ..................            ..............",
".................................................          ...................      .................            ...............",
"..................................................          ..................      ...............             ................",
"....................................................          ................      ...............            .................",
".....................................................          ...............      ...............          ...................",
"......................................................          ..............      ...............         ....................",
"........................................................          ............      ...............       ......................",
".........................................................          ...........      ................     .......................",
"..........................................................          ..........      ............................................",
"............................................................          ........      ............................................",
".............................................................          .......      ............................................",
"..............................................................          ......      ............................................",
"................................................................          ....      ............................................",
".................................................................          ...      ............................................",
"..................................................................          ..      ............................................",
"....................................................................                ............................................",
".....................................................................               ............................................",
"......................................................................              ............................................",
"........................................................................            ............................................",
".........................................................................           ............................................",
"..........................................................................          ............................................",
"............................................................................        ............................................",
".............................................................................       ............................................",
"..............................................................................      ............................................",
"................................................................................   .............................................",
"................................................................................................................................",
"................................................................................................................................",
"................................................................................................................................",
"................................................................................................................................",
"................................................................................................................................",
"................................................................................................................................",
"................................................................................................................................"
};
