#define layout_tall_width 16
#define layout_tall_height 16
static unsigned char layout_tall_bits[] = {
   0x00, 0x00, 0x00, 0x00, 0xfc, 0x39, 0xfc, 0x39, 0xfc, 0x39, 0xfc, 0x01,
   0xfc, 0x01, 0xfc, 0x39, 0xfc, 0x39, 0xfc, 0x01, 0xfc, 0x01, 0xfc, 0x39,
   0xfc, 0x39, 0xfc, 0x39, 0x00, 0x00, 0x00, 0x00 };
