#define layout_mirror_tall_width 16
#define layout_mirror_tall_height 16
static unsigned char layout_mirror_tall_bits[] = {
   0x00, 0x00, 0x00, 0x00, 0xfc, 0x3f, 0xfc, 0x3f, 0xfc, 0x3f, 0xfc, 0x3f,
   0xfc, 0x3f, 0xfc, 0x3f, 0xfc, 0x3f, 0x00, 0x00, 0x00, 0x00, 0x9c, 0x39,
   0x9c, 0x39, 0x9c, 0x39, 0x00, 0x00, 0x00, 0x00 };
