/* XPM */
static char * bat_full_02_xpm[] = {
"8 8 3 1",
" 	c None",
".	c #111111",
"+	c #A9A9A9",
"........",
"+++++++.",
"+.....+.",
"+.+++.++",
"+.+++.++",
"+.....+.",
"+++++++.",
"........"};
