/* XPM */
static char * mtall_xpm[] = {
"12 12 3 1",
" 	c None",
".	c #000000",
"+	c #A9A9A9",
"............",
"............",
"..++++++++..",
"..++++++++..",
"..++++++++..",
"..++++++++..",
"..++++++++..",
"............",
"..++.++.++..",
"..++.++.++..",
"..++.++.++..",
"............"};
