/* XPM */
static char * vol_mute_xpm[] = {
"16 16 3 1",
" 	c None",
".	c #000000",
"+	c #A9A9A9",
"................",
"................",
"........+.......",
".......++.......",
"......+++.......",
"..+++++++.......",
"..+++++++.......",
"..+++++++..+.+..",
"..+++++++...+...",
"..+++++++..+.+..",
"..+++++++.......",
"......+++.......",
".......++.......",
"........+.......",
"................",
"................"};
